<?xml version="1.0" encoding="iso-8859-1"?>
<!-- Generator: Adobe Illustrator 19.0.0, SVG Export Plug-In . SVG Version: 6.00 Build 0)  -->
<svg xmlns="http://www.w3.org/2000/svg" xmlns:xlink="http://www.w3.org/1999/xlink" version="1.1" id="Layer_1" x="0px" y="0px" viewBox="0 0 512 512" style="enable-background:new 0 0 512 512;" xml:space="preserve" width="512px" height="512px">
<g>
	<g>
		<circle cx="89.904" cy="68.372" r="41.1" fill="#333333"/>
	</g>
</g>
<g>
	<g>
		<path d="M113.708,246.898c7.519,1.55,64.035,13.2,72.077,14.857c-1.988-3.353-3.466-7.056-4.282-11.021    c-1.869-9.085-0.187-18.345,4.716-26.18c-7.105-1.461-46.08-9.48-54.134-11.137l-25.997-64.41l20.356,27.409l0.116-36.082    c0.032-10.135-8.147-18.382-18.282-18.434l-46.238-0.237c-4.88-0.025-9.569,1.892-13.034,5.328    c-3.465,3.436-5.421,8.109-5.436,12.989c-1.015,317.06-0.954-91.285-0.904,349.681C42.668,502,52.672,512.002,65.01,512    c5.588-0.001,10.683-2.066,14.599-5.456c-2.563-5.081-4.017-10.813-4.017-16.882L75.571,291.95l15.287,0.078L90.88,489.66    c0.001,12.338,10.003,22.339,22.342,22.339h0.003c12.34-0.001,22.34-10.006,22.339-22.345l-0.026-220.356    c-9.295-1.916-16.338-3.368-25.363-5.228c-16.097-3.312-25.866-16.885-27.094-25.847l-9.986-72.909l27.356,70.53    C102.727,241.478,107.676,245.656,113.708,246.898z" fill="#333333"/>
	</g>
</g>
<g>
	<g>
		<circle cx="316.942" cy="67.86" r="41.1" fill="#333333"/>
	</g>
</g>
<g>
	<g>
		<path d="M422.466,254.994c-40.932-77.317-37.707-186.05-37.67-187.14c0.003-0.09,0.004-0.182,0.004-0.272    C384.65,30.258,354.239,0,316.946,0c-0.09,0-0.188,0-0.279,0.001c-9.827,0.04-19.302,2.135-28.159,6.228    c-3.537,1.634-5.08,5.826-3.446,9.364c1.634,3.536,5.826,5.081,9.364,3.445c7.007-3.237,14.509-4.895,22.298-4.926    c0.074-0.001,0.147-0.001,0.222-0.001c29.491,0,53.553,23.897,53.743,53.4c-0.207,6.354-3.044,114.094,39.306,194.086    c1.824,3.445,6.092,4.757,9.536,2.934C422.975,262.707,424.289,258.438,422.466,254.994z" fill="#333333"/>
	</g>
</g>
<g>
	<g>
		<path d="M467.035,449.312c-31.105-76.122-83.717-203.087-103.535-240.218l-0.003-0.909l6.391-21.253    c1.459-4.851,0.537-10.107-2.486-14.173c-1.127-1.515-2.495-2.795-4.031-3.809l-0.095-29.485    c-0.016-4.88-1.971-9.553-5.436-12.989c-3.465-3.436-8.154-5.353-13.034-5.328l-46.238,0.237    c-10.135,0.052-18.314,8.299-18.282,18.434l0.013,4.03c-17.537,1.873-31.243,16.755-31.243,34.78    c0,7.573,2.426,14.585,6.532,20.317l9.086-1.869l4.293-5.781c-2.882-3.425-4.624-7.841-4.624-12.668    c0-10.878,8.819-19.696,19.696-19.696c2.763,0,5.39,0.574,7.776,1.6l8.944-12.043l-25.997,64.41l-61.877,12.731    c-9.878,2.032-16.241,11.686-14.208,21.568c1.713,8.331,9.192,15.755,21.568,14.208c79.676-16.424,72.366-14.91,73.241-15.109    c5.684-1.285,10.603-5.261,12.908-10.97l27.354-70.529l-0.205,1.496l-2.194,16.02c5.513,0,12.517,0,23.195,0l-6.648,22.108    h-19.576l-2.194,16.022h25.258c21.86,42.744,79.268,182.188,100.817,234.924c3.994,9.775-3.213,20.45-13.728,20.45    c-45.423,0-148.582,0-189.737,0c-9.034,0-16.06-8.103-14.659-17.13l23.668-152.389c1.926-12.398,4.809-24.595,8.586-36.493    l-17.848,3.679c-2.772,9.924-4.969,20.047-6.57,30.355l-23.668,152.389c-2.91,18.735,11.627,35.61,30.491,35.61    c11.929,0,10.161,0,22.724,0c1.335,11.062,10.738,19.64,22.161,19.641c11.424,0.001,20.83-8.577,22.166-19.641h15.359    c-0.352,5.001-1.681,9.806-3.894,14.199c3.915,3.382,9.004,5.441,14.583,5.442c0.001,0,0.001,0,0.002,0    c11.422,0,20.827-8.579,22.163-19.641h74.474C460.4,491.844,475.322,469.594,467.035,449.312z" fill="#333333"/>
	</g>
</g>
<g>
</g>
<g>
</g>
<g>
</g>
<g>
</g>
<g>
</g>
<g>
</g>
<g>
</g>
<g>
</g>
<g>
</g>
<g>
</g>
<g>
</g>
<g>
</g>
<g>
</g>
<g>
</g>
<g>
</g>
</svg>
